<svg xmlns="http://www.w3.org/2000/svg" version="1.1" xmlns:xlink="http://www.w3.org/1999/xlink" xmlns:svgjs="http://svgjs.dev/svgjs" width="1000" height="229" viewBox="0 0 1000 229"><g transform="matrix(1,0,0,1,-0.6060595906272965,0.06116398025075398)"><svg viewBox="0 0 396 91" data-background-color="#1f2d5a" preserveAspectRatio="xMidYMid meet" height="229" width="1000" xmlns="http://www.w3.org/2000/svg" xmlns:xlink="http://www.w3.org/1999/xlink"><g id="tight-bounds" transform="matrix(1,0,0,1,0.23999959788841352,0.05314855651428729)"><svg viewBox="0 0 395.52 90.89370288697141" height="90.89370288697141" width="395.52"><g><svg viewBox="0 0 653.6596120268456 150.21627873377102" height="90.89370288697141" width="395.52"><g transform="matrix(1,0,0,1,258.1396120268456,46.074582319905645)"><svg viewBox="0 0 395.52 58.067114093959724" height="58.067114093959724" width="395.52"><g><svg viewBox="0 0 395.52 58.067114093959724" height="58.067114093959724" width="395.52"><g><svg viewBox="0 0 395.52 58.067114093959724" height="58.067114093959724" width="395.52"><g transform="matrix(1,0,0,1,0,0)"><svg width="395.52" viewBox="5.699999809265137 -35 238.38999938964844 35" height="58.067114093959724" data-palette-color="#fbfbfb"><path d="M5.7 0L5.7-35 9.4-35 9.4-3.2 29-3.2 29 0 5.7 0ZM61.4 0L57.2-9.35 37.7-9.35 33.5 0 29.65 0 45.65-35 49.3-35 65.3 0 61.4 0ZM39.05-12.35L55.85-12.35 47.45-31.15 39.05-12.35ZM93.15-18.05Q96.6-17.3 98.47-15.08 100.35-12.85 100.35-9.35L100.35-9.35Q100.35-4.85 97.02-2.43 93.7 0 87.2 0L87.2 0 71.1 0 71.1-35 86.2-35Q92.05-35 95.27-32.65 98.5-30.3 98.5-26L98.5-26Q98.5-23.1 97.07-21.08 95.65-19.05 93.15-18.05L93.15-18.05ZM85.95-31.95L74.8-31.95 74.8-19.25 85.95-19.25Q90.2-19.25 92.5-20.88 94.8-22.5 94.8-25.6L94.8-25.6Q94.8-28.7 92.5-30.33 90.2-31.95 85.95-31.95L85.95-31.95ZM87.15-3.05Q91.85-3.05 94.25-4.65 96.65-6.25 96.65-9.65L96.65-9.65Q96.65-16.2 87.15-16.2L87.15-16.2 74.8-16.2 74.8-3.05 87.15-3.05ZM142.09-35L145.14-35 145.14 0 141.59 0 141.59-28 127.84-4.45 126.09-4.45 112.34-27.85 112.34 0 108.79 0 108.79-35 111.84-35 127.04-9.05 142.09-35ZM182.69 0L178.49-9.35 158.99-9.35 154.79 0 150.94 0 166.94-35 170.59-35 186.59 0 182.69 0ZM160.34-12.35L177.14-12.35 168.74-31.15 160.34-12.35ZM197.44 0L197.44-31.8 185.14-31.8 185.14-35 213.44-35 213.44-31.8 201.14-31.8 201.14 0 197.44 0ZM223.04-3.2L244.09-3.2 244.09 0 219.34 0 219.34-35 243.34-35 243.34-31.8 223.04-31.8 223.04-19.35 241.14-19.35 241.14-16.2 223.04-16.2 223.04-3.2Z" opacity="1" transform="matrix(1,0,0,1,0,0)" fill="#fbfbfb" class="undefined-text-0" data-fill-palette-color="primary" id="text-0"></path></svg></g></svg></g></svg></g></svg></g><g><svg viewBox="0 0 244.43135999999998 150.21627873377102" height="150.21627873377102" width="244.43135999999998"><g><svg xmlns="http://www.w3.org/2000/svg" data-name="Layer 1" viewBox="2.430551767349243 20.791906356811523 95.1390609741211 58.46809387207031" x="0" y="0" height="150.21627873377102" width="244.43135999999998" class="icon-icon-0" data-fill-palette-color="accent" id="icon-0"><path d="M62.78 23l32 55.42 1.3-2.26h-64l1.3 2.26L65.37 23a1.5 1.5 0 0 0-2.59-1.51L30.79 77a1.51 1.51 0 0 0 1.3 2.26h64A1.51 1.51 0 0 0 97.37 77l-32-55.42A1.5 1.5 0 0 0 62.78 23Z" fill="#2f76db" data-fill-palette-color="accent"></path><path d="M34.63 23l32 55.42 1.3-2.26h-64l1.3 2.26L37.22 23a1.5 1.5 0 0 0-2.59-1.51L2.63 77a1.51 1.51 0 0 0 1.3 2.26h64A1.51 1.51 0 0 0 69.21 77l-32-55.42A1.5 1.5 0 0 0 34.63 23Z" fill="#2f76db" data-fill-palette-color="accent"></path></svg></g></svg></g></svg></g><defs></defs></svg><rect width="395.52" height="90.89370288697141" fill="none" stroke="none" visibility="hidden"></rect></g></svg></g></svg>